<svg width="9" height="10" viewBox="0 0 9 10" fill="none" xmlns="http://www.w3.org/2000/svg">
<g id="bxs:down-arrow">
<path id="Vector" d="M4.19174 7.83838C4.22614 7.88834 4.27218 7.9292 4.32588 7.95742C4.37957 7.98564 4.43933 8.00039 4.49999 8.00039C4.56065 8.00039 4.62041 7.98564 4.67411 7.95742C4.72781 7.9292 4.77384 7.88834 4.80824 7.83838L8.18324 2.96338C8.22231 2.90715 8.24521 2.84129 8.24948 2.77295C8.25374 2.70462 8.2392 2.63642 8.20742 2.57577C8.17565 2.51512 8.12786 2.46434 8.06925 2.42895C8.01065 2.39355 7.94346 2.37489 7.87499 2.375H1.12499C1.05668 2.37528 0.989743 2.39418 0.931372 2.42966C0.873 2.46514 0.825405 2.51586 0.793705 2.57637C0.762005 2.63688 0.747399 2.70489 0.751458 2.77307C0.755516 2.84126 0.778087 2.90706 0.816741 2.96338L4.19174 7.83838Z" fill="#979699"/>
</g>
</svg>
